<svg width="20" height="20" viewBox="0 0 20 20" fill="none" xmlns="http://www.w3.org/2000/svg">
<path d="M6.2963 1.66675C3.74352 1.66675 1.66667 3.7436 1.66667 6.29638V13.7038C1.66667 16.2566 3.74352 18.3334 6.2963 18.3334H13.7037C16.2565 18.3334 18.3333 16.2566 18.3333 13.7038V6.29638C18.3333 3.7436 16.2565 1.66675 13.7037 1.66675H6.2963ZM6.2963 3.5186H13.7037C15.2352 3.5186 16.4815 4.7649 16.4815 6.29638V13.7038C16.4815 15.2353 15.2352 16.4816 13.7037 16.4816H6.2963C4.76482 16.4816 3.51852 15.2353 3.51852 13.7038V6.29638C3.51852 4.7649 4.76482 3.5186 6.2963 3.5186ZM14.6296 4.44453C14.3841 4.44453 14.1486 4.54208 13.9749 4.71572C13.8013 4.88937 13.7037 5.12488 13.7037 5.37045C13.7037 5.61602 13.8013 5.85154 13.9749 6.02518C14.1486 6.19882 14.3841 6.29638 14.6296 6.29638C14.8752 6.29638 15.1107 6.19882 15.2844 6.02518C15.458 5.85154 15.5556 5.61602 15.5556 5.37045C15.5556 5.12488 15.458 4.88937 15.2844 4.71572C15.1107 4.54208 14.8752 4.44453 14.6296 4.44453ZM10 5.37045C7.44723 5.37045 5.37038 7.4473 5.37038 10.0001C5.37038 12.5529 7.44723 14.6297 10 14.6297C12.5528 14.6297 14.6296 12.5529 14.6296 10.0001C14.6296 7.4473 12.5528 5.37045 10 5.37045ZM10 7.2223C11.5315 7.2223 12.7778 8.4686 12.7778 10.0001C12.7778 11.5316 11.5315 12.7779 10 12.7779C8.46852 12.7779 7.22223 11.5316 7.22223 10.0001C7.22223 8.4686 8.46852 7.2223 10 7.2223Z" fill="white"/>
</svg>
