<svg width="20" height="20" viewBox="0 0 20 20" fill="none" xmlns="http://www.w3.org/2000/svg">
<path d="M8.21429 8.38807L7.67302 9.90077H8.75556L8.21429 8.38807Z" fill="white"/>
<path fill-rule="evenodd" clip-rule="evenodd" d="M1.66667 9.10712C1.66667 5.38132 5.39762 2.36108 10 2.36108C14.6024 2.36108 18.3333 5.38132 18.3333 9.10712C18.3333 12.8329 14.6024 15.8531 10 15.8531C9.39762 15.8531 8.81112 15.7988 8.24485 15.7004L4.90278 17.9285C4.74802 18.0317 4.54921 17.8845 4.60278 17.7063L5.48334 14.771C3.18889 13.5694 1.66667 11.4841 1.66667 9.10712ZM13.9683 9.76362V11.0912C13.9683 11.3103 13.7905 11.4881 13.5714 11.4881C13.3524 11.4881 13.1746 11.3103 13.1746 11.0912V7.51982C13.1746 7.30077 13.3524 7.12299 13.5714 7.12299C13.7905 7.12299 13.9683 7.30077 13.9683 7.51982V8.64204L15.371 7.23926C15.5262 7.0841 15.7774 7.0841 15.9321 7.23926C16.0873 7.39442 16.0873 7.64561 15.9321 7.80037L14.7771 8.95538C14.7825 8.96145 14.7878 8.96771 14.7929 8.97418L16.2643 10.846C16.3996 11.0182 16.3698 11.2678 16.1976 11.4032C16.0254 11.5385 15.7758 11.5087 15.6405 11.3365L14.2125 9.51998L13.9821 9.75037L13.9793 9.75318C13.9757 9.75674 13.972 9.76022 13.9683 9.76362ZM10.3968 7.51982V11.0912C10.3968 11.3103 10.5746 11.4881 10.7937 11.4881H12.381C12.6 11.4881 12.7778 11.3103 12.7778 11.0912C12.7778 10.8722 12.6 10.6944 12.381 10.6944H11.1905V7.51982C11.1905 7.30077 11.0127 7.12299 10.7937 7.12299C10.5746 7.12299 10.3968 7.30077 10.3968 7.51982ZM8.69524 7.37775L9.97342 10.9492C10.052 11.1535 9.95 11.3837 9.74524 11.4619C9.54048 11.5401 9.31112 11.4381 9.23254 11.2333L9.03969 10.6944H7.38889L7.19604 11.2333C7.11747 11.4381 6.8881 11.5405 6.68334 11.4619C6.47858 11.3833 6.3762 11.1539 6.45477 10.9492L7.73294 7.37775C7.79207 7.22339 7.93691 7.13053 8.09247 7.12775C8.13254 7.12696 8.30278 7.12617 8.34683 7.12815C8.49802 7.13529 8.6377 7.22736 8.69524 7.37775ZM4.84127 7.91664H4.04762C3.82858 7.91664 3.6508 7.73886 3.6508 7.51982C3.6508 7.30077 3.82858 7.12299 4.04762 7.12299H6.42858C6.64762 7.12299 6.8254 7.30077 6.8254 7.51982C6.8254 7.73886 6.64762 7.91664 6.42858 7.91664H5.63493V11.0912C5.63493 11.3103 5.45715 11.4881 5.2381 11.4881C5.01905 11.4881 4.84127 11.3103 4.84127 11.0912V7.91664Z" fill="white"/>
</svg>
