<svg width="20" height="20" viewBox="0 0 20 20" fill="none" xmlns="http://www.w3.org/2000/svg">
<path d="M18.3333 2C17.6833 2.46297 16.3792 3.09393 15.6125 3.27592C15.59 3.28292 15.5717 3.29192 15.55 3.29892C14.8725 2.49697 13.9442 2 12.9167 2C10.8458 2 9.16667 4.01487 9.16667 6.49972C9.16667 6.63071 9.15751 6.8717 9.16667 6.99969C6.37251 6.99969 4.24584 5.2438 2.72084 2.99994C2.55501 3.49991 2.48251 4.28986 2.48251 5.03181C2.48251 6.43272 3.395 7.80864 4.81584 8.66158C4.55417 8.74258 4.26584 8.80058 3.96584 8.80058C3.48167 8.80058 2.96917 8.64758 2.50001 8.18361C2.50001 8.20061 2.50001 8.21661 2.50001 8.23461C2.50001 10.1925 4.23167 11.5254 5.77167 11.8964C5.45917 12.1174 4.82917 12.1394 4.52167 12.1394C4.30501 12.1394 3.53834 12.0204 3.33334 11.9744C3.76167 13.5793 5.30667 14.4812 6.77917 14.5132C5.62751 15.5972 4.82834 15.9991 2.47001 15.9991H1.66667C3.15667 17.1451 5.05417 18 6.95584 18C13.1475 18 16.6667 12.3374 16.6667 6.99969C16.6667 6.91369 16.665 6.7337 16.6625 6.55272C16.6625 6.53472 16.6667 6.51772 16.6667 6.49972C16.6667 6.47272 16.66 6.44672 16.66 6.41972C16.6575 6.28373 16.655 6.15674 16.6525 6.09074C17.3108 5.52078 17.8817 4.80982 18.3333 3.99988C17.7292 4.32186 17.0808 4.53784 16.4 4.63584C17.095 4.13587 18.0825 2.94394 18.3333 2Z" fill="white"/>
</svg>
