<svg width="20" height="20" viewBox="0 0 20 20" fill="none" xmlns="http://www.w3.org/2000/svg">
<path d="M19.582 4.186C19.352 3.326 18.674 2.648 17.814 2.418C16.254 2 10 2 10 2C10 2 3.746 2 2.186 2.418C1.326 2.648 0.648 3.326 0.418 4.186C-2.98023e-08 5.746 0 10 0 10C0 10 -2.98023e-08 14.254 0.418 15.814C0.648 16.674 1.326 17.352 2.186 17.582C3.746 18 10 18 10 18C10 18 16.254 18 17.814 17.582C18.675 17.352 19.352 16.674 19.582 15.814C20 14.254 20 10 20 10C20 10 20 5.746 19.582 4.186ZM8 13.464V6.536L14 10L8 13.464Z" fill="white"/>
</svg>
