<svg xmlns="http://www.w3.org/2000/svg" xmlns:xlink="http://www.w3.org/1999/xlink" version="1.1" x="0px" y="0px" viewBox="0 0 100 125" style="enable-background:new 0 0 100 100;" xml:space="preserve"><path d="M57.1,25.9c0.6-1.2,0.8-2.6,0.4-4c-1.1-3.6-3.6-6.6-7-8.4s-7.2-2.1-10.9-1l-15.5,4.9c-3.6,1.1-6.6,3.6-8.4,7  s-2.1,7.2-1,10.9c0.4,1.3,1.3,2.4,2.5,3c0.9,0.5,2,0.7,3,0.6l9.2,29.4c0.1,0.4,0.5,0.7,1,0.7c0.1,0,0.2,0,0.3,0l9-2.8l-3.3,10.1  c-0.1,0.3-0.1,0.5,0.1,0.8c0.1,0.2,0.3,0.4,0.6,0.5l32.7,10.6c0.1,0,0.2,0,0.3,0c0.2,0,0.3,0,0.5-0.1c0.2-0.1,0.4-0.3,0.5-0.6  l9.5-29.3c2.4,0.3,4.8-1.2,5.6-3.5c2.4-7.5-1.7-15.5-9.1-17.9l-15.5-5c-1.8-0.6-3.8-0.8-5.6-0.6l-0.9-3  C55.8,27.6,56.6,26.9,57.1,25.9z M60.9,33.6l15.5,5c6.4,2.1,9.9,9,7.9,15.4c0,0,0,0,0,0c-0.5,1.7-2.3,2.6-4,2  c-0.5-0.2-1.1,0.1-1.3,0.6L69.4,86L38.7,76l9.5-29.2c0.1-0.3,0.1-0.5-0.1-0.8c-0.1-0.2-0.3-0.4-0.6-0.5c-0.8-0.3-1.5-0.8-1.9-1.6  c-0.4-0.8-0.5-1.6-0.2-2.4c1-3.1,3.2-5.6,6.1-7.1C54.5,32.9,57.8,32.6,60.9,33.6z M50.6,32.6c-3.4,1.7-5.9,4.7-7.1,8.3  c-0.4,1.3-0.3,2.7,0.3,4c0.5,0.9,1.2,1.7,2.1,2.2l-5.5,16.9c0,0,0,0,0,0l-9.4,2.9l-9.2-29.3c-0.2-0.5-0.7-0.8-1.3-0.7  c-1.7,0.5-3.5-0.4-4-2.1c-1-3.1-0.7-6.4,0.8-9.3c1.5-2.9,4.1-5,7.2-6l15.5-4.9c3.1-1,6.4-0.7,9.3,0.8s5,4.1,6,7.2  c0.3,0.8,0.2,1.7-0.2,2.4c-0.4,0.8-1.1,1.3-1.9,1.6c-0.3,0.1-0.5,0.3-0.6,0.5c-0.1,0.2-0.1,0.5-0.1,0.8l1.1,3.6  C52.8,31.7,51.7,32,50.6,32.6z"/><ellipse transform="matrix(0.3286 -0.9445 0.9445 0.3286 -19.0479 83.2043)" cx="49" cy="55" rx="1.2" ry="1.2"/><ellipse transform="matrix(0.3286 -0.9445 0.9445 0.3286 -26.7404 97.0949)" cx="54.9" cy="67.4" rx="1.2" ry="1.2"/><ellipse transform="matrix(0.3286 -0.9445 0.9445 0.3286 -30.1349 106.6087)" cx="59.9" cy="74.5" rx="1.2" ry="1.2"/><ellipse transform="matrix(0.3286 -0.9445 0.9445 0.3286 -32.8931 114.7275)" cx="64.2" cy="80.5" rx="1.2" ry="1.2"/><ellipse transform="matrix(0.3286 -0.9445 0.9445 0.3286 -19.9363 99.7414)" cx="60.2" cy="63.9" rx="1.2" ry="1.2"/><ellipse transform="matrix(0.3286 -0.9445 0.9445 0.3286 -18.7071 109.4908)" cx="67.7" cy="67.9" rx="1.2" ry="1.2"/><ellipse transform="matrix(0.3286 -0.9445 0.9445 0.3286 -11.6406 111.9316)" cx="72.9" cy="64.2" rx="1.2" ry="1.2"/><ellipse transform="matrix(0.3286 -0.9445 0.9445 0.3286 -20.0068 90.5115)" cx="53.7" cy="59.3" rx="1.2" ry="1.2"/><ellipse transform="matrix(0.3286 -0.9445 0.9445 0.3286 -30.0484 87.7993)" cx="46.7" cy="65" rx="1.2" ry="1.2"/><ellipse transform="matrix(0.3286 -0.9445 0.9445 0.3286 -39.7756 89.6238)" cx="43.2" cy="72.8" rx="1.2" ry="1.2"/><ellipse transform="matrix(0.3286 -0.9445 0.9445 0.3286 -37.1486 100.7266)" cx="52.3" cy="76.5" rx="1.2" ry="1.2"/><ellipse transform="matrix(0.3286 -0.9445 0.9445 0.3286 10.4811 100.2443)" cx="75.8" cy="42.8" rx="1.2" ry="1.2"/><ellipse transform="matrix(0.3286 -0.9445 0.9445 0.3286 7.0902 110.4742)" cx="81.2" cy="50.2" rx="1.2" ry="1.2"/><ellipse transform="matrix(0.3286 -0.9445 0.9445 0.3286 -4.0158 107.3507)" cx="73.5" cy="56.5" rx="1.2" ry="1.2"/><ellipse transform="matrix(0.3286 -0.9445 0.9445 0.3286 -9.6599 101.4109)" cx="66.5" cy="57.5" rx="1.2" ry="1.2"/><ellipse transform="matrix(0.3286 -0.9445 0.9445 0.3286 7.1731 90.9487)" cx="67.6" cy="40.4" rx="1.2" ry="1.2"/><ellipse transform="matrix(0.3286 -0.9445 0.9445 0.3286 -2.554 92.7732)" cx="64" cy="48.2" rx="1.2" ry="1.2"/><ellipse transform="matrix(0.3286 -0.9445 0.9445 0.3286 -11.7856 92.8444)" cx="59.4" cy="54.7" rx="1.2" ry="1.2"/><ellipse transform="matrix(0.3286 -0.9445 0.9445 0.3286 2.4275 102.415)" cx="73.2" cy="49.5" rx="1.2" ry="1.2"/><ellipse transform="matrix(0.3286 -0.9445 0.9445 0.3286 3.5121 82.5134)" cx="59.8" cy="38.8" rx="1.2" ry="1.2"/><ellipse transform="matrix(0.3286 -0.9445 0.9445 0.3286 -5.4733 84.122)" cx="56.4" cy="45.9" rx="1.2" ry="1.2"/><ellipse transform="matrix(0.3286 -0.9445 0.9445 0.3286 -10.9819 80.7434)" cx="51.3" cy="48.1" rx="1.2" ry="1.2"/><circle cx="69.8" cy="76" r="1.2"/><ellipse transform="matrix(0.3286 -0.9445 0.9445 0.3286 -2.2841 74.3441)" cx="51.1" cy="38.8" rx="1.2" ry="1.2"/><text x="0" y="115" fill="#000000" font-size="5px" font-weight="bold" font-family="'Helvetica Neue', Helvetica, Arial-Unicode, Arial, Sans-serif">Created by Made by Made</text><text x="0" y="120" fill="#000000" font-size="5px" font-weight="bold" font-family="'Helvetica Neue', Helvetica, Arial-Unicode, Arial, Sans-serif">from the Noun Project</text></svg>