<svg xmlns="http://www.w3.org/2000/svg" viewBox="0 0 100 125" x="0px" y="0px"><title>Animal Face line</title><g data-name="Layer 6"><path d="M64.644,46.943a2.388,2.388,0,1,0,2.388,2.388A2.391,2.391,0,0,0,64.644,46.943Z"/><path d="M37.745,49.331a2.388,2.388,0,1,0-2.388,2.388A2.391,2.391,0,0,0,37.745,49.331Z"/><path d="M50,55.029c-8.012,0-14.529,4.8-14.529,10.7,0,3.725,2.6,7.008,6.531,8.925.019,3.285,3.524,5.854,8,5.854s7.979-2.569,8-5.854c3.931-1.917,6.531-5.2,6.531-8.925C64.529,59.83,58.012,55.029,50,55.029ZM50,78.01c-2.367,0-4.437-.977-5.192-2.3a19.116,19.116,0,0,0,10.384,0C54.437,77.033,52.367,78.01,50,78.01Zm0-4.077c-6.633,0-12.029-3.679-12.029-8.2s5.4-8.2,12.029-8.2,12.029,3.68,12.029,8.2S56.633,73.933,50,73.933Z"/><path d="M55.667,63.578a2.016,2.016,0,1,0,2.016,2.016A2.018,2.018,0,0,0,55.667,63.578Z"/><path d="M44.333,63.578a2.016,2.016,0,1,0,2.016,2.016A2.018,2.018,0,0,0,44.333,63.578Z"/><path d="M83.975,19.024a1.242,1.242,0,0,0-.99-.126,33.7,33.7,0,0,0-9.092,4.333,28.386,28.386,0,0,0-5.953,5.983,1.25,1.25,0,0,0,.453,1.827,34.36,34.36,0,0,1,10.97,9.84,1.25,1.25,0,0,0,1.024.534c.036,0,.073,0,.109,0a1.25,1.25,0,0,0,1.024-.718c.121-.26,2.966-6.418,3.558-10.8a33.73,33.73,0,0,0-.521-10.058A1.249,1.249,0,0,0,83.975,19.024ZM82.6,29.558a37.954,37.954,0,0,1-2.508,8.137,37.479,37.479,0,0,0-9.261-8.132,26.094,26.094,0,0,1,4.534-4.314,29.348,29.348,0,0,1,6.989-3.508A29.333,29.333,0,0,1,82.6,29.558Z"/><path d="M26.107,23.23A33.7,33.7,0,0,0,17.016,18.9a1.25,1.25,0,0,0-1.573.937,33.71,33.71,0,0,0-.521,10.058c.592,4.38,3.437,10.538,3.558,10.8a1.25,1.25,0,0,0,1.024.718c.037,0,.073,0,.109,0a1.25,1.25,0,0,0,1.024-.534A34.539,34.539,0,0,1,31.608,31.04a1.252,1.252,0,0,0,.452-1.826A28.381,28.381,0,0,0,26.107,23.23ZM19.907,37.7A37.89,37.89,0,0,1,17.4,29.558a29.333,29.333,0,0,1,.245-7.816,29.355,29.355,0,0,1,6.989,3.508,26.19,26.19,0,0,1,4.534,4.314A37.474,37.474,0,0,0,19.907,37.7Z"/><path d="M89.172,12.247A1.25,1.25,0,0,0,87.6,11.31c-.409.12-10.1,2.991-17.278,8.222a51.038,51.038,0,0,0-6.984,6.4,43.154,43.154,0,0,0-26.675,0,51.051,51.051,0,0,0-6.986-6.4C22.5,14.3,12.81,11.43,12.4,11.31a1.25,1.25,0,0,0-1.573.937c-.089.417-2.182,10.306-.986,19.1A65.228,65.228,0,0,0,14.3,46.286,28.371,28.371,0,0,0,12.49,56.28c0,17.9,16.827,32.46,37.51,32.46S87.51,74.179,87.51,56.28A28.375,28.375,0,0,0,85.7,46.286a65.231,65.231,0,0,0,4.463-14.937C91.354,22.552,89.262,12.664,89.172,12.247ZM87.681,31.012c-.728,5.372-3.12,11.553-4.481,14.759a1.3,1.3,0,0,0-.1.5,1.251,1.251,0,0,0,.087.459A25.909,25.909,0,0,1,85.01,56.28C85.01,72.8,69.3,86.24,50,86.24S14.99,72.8,14.99,56.28A25.9,25.9,0,0,1,16.8,46.75a1.26,1.26,0,0,0,0-.967q-.02-.048-.042-.092c-1.367-3.229-3.727-9.352-4.448-14.679-.886-6.512.176-13.9.7-16.881,2.873.963,9.868,3.542,15.186,7.417a50.13,50.13,0,0,1,7.16,6.667,1.251,1.251,0,0,0,1.344.343,40.587,40.587,0,0,1,26.59,0,1.252,1.252,0,0,0,1.344-.343A50.117,50.117,0,0,1,71.8,21.55c5.313-3.872,12.314-6.455,15.188-7.419C87.506,17.115,88.568,24.491,87.681,31.012Z"/></g><text x="0" y="115" fill="#000000" font-size="5px" font-weight="bold" font-family="'Helvetica Neue', Helvetica, Arial-Unicode, Arial, Sans-serif">Created by Fahrul Oktaviana</text><text x="0" y="120" fill="#000000" font-size="5px" font-weight="bold" font-family="'Helvetica Neue', Helvetica, Arial-Unicode, Arial, Sans-serif">from the Noun Project</text></svg>