<svg xmlns="http://www.w3.org/2000/svg" xmlns:xlink="http://www.w3.org/1999/xlink" version="1.1" x="0px" y="0px" viewBox="0 0 100 125" style="enable-background:new 0 0 100 100;" xml:space="preserve"><path d="M89,20.9077148H75.1306763c0.0428467-0.8063354,0.1170044-1.6118774,0.2589722-2.4130859  c0.0742188-0.4204102,0.1118164-0.8515625,0.1118164-1.28125c0-1.9624023-0.7641602-3.8071289-2.1518555-5.1948242  c-1.6972656-1.6977539-4.222168-2.3833008-6.7514648-1.8388672c-0.0332031,0.0073242-0.0664062,0.0161133-0.0991211,0.0268555  l-7.821228,2.5500488c-1.1026001-1.4142456-2.8175049-2.3288574-4.7456665-2.3288574h-7.8774414  c-1.9204102,0-3.6295776,0.9070435-4.7327271,2.3115845l-7.7677612-2.5327759  c-0.0327148-0.0107422-0.065918-0.0195312-0.0991211-0.0268555c-2.53125-0.5429688-5.0541992,0.1420898-6.7519531,1.8388672  c-1.3876953,1.3876953-2.1518555,3.2324219-2.1518555,5.1948242c0,0.2729492,0.0146484,0.5429688,0.0439453,0.8071289  c0.1056519,0.9584961,0.1590576,1.9224243,0.1870728,2.887207H11c-0.5522461,0-1,0.4477539-1,1v20.9916992  c0,0.5522461,0.4477539,1,1,1h2.9169922V89c0,0.5522461,0.4477539,1,1,1h70.1660156c0.5522461,0,1-0.4477539,1-1V43.8994141H89  c0.5522461,0,1-0.4477539,1-1V21.9077148C90,21.3554688,89.5522461,20.9077148,89,20.9077148z M67.0683594,12.1245117  c1.8193359-0.3754883,3.6811523,0.1225586,4.8671875,1.3081055c1.0097656,1.0097656,1.565918,2.3525391,1.565918,3.7807617  c0,0.3134766-0.0273438,0.6274414-0.081543,0.9331055c-0.4472656,2.5263672-0.4472656,5.0883789,0,7.6142578  c0.0541992,0.3061523,0.081543,0.6201172,0.081543,0.9335938c0,0.890625-0.2231445,1.7719727-0.6450195,2.5478516  c-1.109375,2.0419922-3.6425781,3.0317383-6.0449219,2.371582l-6.9752197-3.0753174  c0.0750732-0.3791504,0.116333-0.7703857,0.116333-1.1712646V16.4482422c0-0.6650391-0.1126709-1.3031616-0.3126831-1.9017944  L67.0683594,12.1245117z M39.578125,41.8994141V31.0057373l1.3032837-0.574585  c1.050354,1.7665405,2.9730835,2.956543,5.1732788,2.956543h7.8774414c2.2098999,0,4.1400757-1.2001953,5.1873169-2.9796143  l1.3024292,0.5742188v10.9171143H39.578125z M60.421875,43.8994141V88h-20.84375V43.8994141H60.421875z M46.0546875,12.4277344  h7.8774414c2.2167969,0,4.0205078,1.8037109,4.0205078,4.0205078v10.9189453c0,2.2167969-1.8037109,4.0205078-4.0205078,4.0205078  h-7.8774414c-2.2167969,0-4.0205078-1.8037109-4.0205078-4.0205078V16.4482422  C42.0341797,14.2314453,43.8378906,12.4277344,46.0546875,12.4277344z M28.1171875,13.4326172  c1.1865234-1.1850586,3.0483398-1.6850586,4.8676758-1.3081055l7.3690796,2.40271  c-0.2042236,0.604187-0.3197632,1.2487793-0.3197632,1.9210205v10.9189453c0,0.4104004,0.0419312,0.8110962,0.1205444,1.1986694  l-6.9135132,3.0479126c-2.4013672,0.6582031-4.9360352-0.3295898-6.0454102-2.371582  c-0.4213867-0.7758789-0.6445312-1.6572266-0.6445312-2.5478516c0-0.1987305,0.0107422-0.3945312,0.0322266-0.5883789  c0.3032227-2.7548828,0.3032227-5.5493164,0-8.3051758c-0.0214844-0.1928711-0.0322266-0.3886719-0.0322266-0.5874023  C26.5512695,15.7851562,27.1074219,14.4423828,28.1171875,13.4326172z M12,22.9077148h12.78479  c-0.0263672,0.9954224-0.0805664,1.9899292-0.1895752,2.9785156c-0.0292969,0.2651367-0.0439453,0.5351562-0.0439453,0.8081055  c0,1.2231445,0.3066406,2.4345703,0.887207,3.5029297c1.2333984,2.2700195,3.6972656,3.6186523,6.3100586,3.6186523  c0.6987305,0,1.4086914-0.0966797,2.1079102-0.2978516c0.043457-0.012207,0.0859375-0.027832,0.1269531-0.0458984  l3.5947266-1.5847168v10.0119629H12V22.9077148z M15.9169922,43.8994141H37.578125V88H15.9169922V43.8994141z M84.0830078,88  H62.421875V43.8994141h21.6611328V88z M88,41.8994141H62.421875V31.8640747l3.6474609,1.6080933  c0.0410156,0.0180664,0.0834961,0.0336914,0.1269531,0.0458984c0.699707,0.2011719,1.4086914,0.2978516,2.1074219,0.2978516  c2.612793-0.0004883,5.0771484-1.3486328,6.3100586-3.6186523c0.5810547-1.0683594,0.8876953-2.2797852,0.8876953-3.5029297  c0-0.4296875-0.0375977-0.8608398-0.1118164-1.2817383c-0.1473999-0.831543-0.2224731-1.6677856-0.2630615-2.5048828H88V41.8994141z  "/><text x="0" y="115" fill="#000000" font-size="5px" font-weight="bold" font-family="'Helvetica Neue', Helvetica, Arial-Unicode, Arial, Sans-serif">Created by Made by Made</text><text x="0" y="120" fill="#000000" font-size="5px" font-weight="bold" font-family="'Helvetica Neue', Helvetica, Arial-Unicode, Arial, Sans-serif">from the Noun Project</text></svg>