<svg xmlns="http://www.w3.org/2000/svg" xmlns:xlink="http://www.w3.org/1999/xlink" version="1.1" x="0px" y="0px" viewBox="0 0 100 125" style="enable-background:new 0 0 100 100;" xml:space="preserve"><path d="M21,79.4C21,79.4,21,79.4,21,79.4c0,2.1,0.8,4.2,2.4,5.7c1.5,1.5,3.5,2.3,5.7,2.3s4.1-0.8,5.7-2.3c1.5-1.5,2.3-3.5,2.3-5.7  c0-2-0.7-3.8-2-5.3l11.6-11.6l0.9,0.9c0.4,0.4,0.9,0.6,1.5,0.6s1.1-0.2,1.5-0.6c3.4-3.4,8.1-5.2,13.3-5c6.2,0.2,12.3-2.2,16.7-6.6  c4.5-4.5,6.9-10.8,6.6-17.2c-0.4-6.5-3.4-12.3-8.5-16.4c-8.1-6.5-19.9-6.5-28,0c-5.7,4.5-8.8,11.3-8.5,18.5c0.2,5-1.5,9.6-4.9,13  c-0.4,0.4-0.7,1-0.7,1.6c0,0.6,0.2,1.2,0.7,1.6l0.8,0.8L26.3,65.4c-3.1-2.8-7.9-2.7-10.9,0.3c-3.1,3.1-3.1,8.2,0,11.3  C16.8,78.5,18.9,79.4,21,79.4z M38.5,51.2c3.7-3.7,5.7-9,5.4-14.5c-0.3-6.6,2.5-12.7,7.7-16.9c3.7-3,8.2-4.4,12.8-4.4  c4.5,0,9.1,1.5,12.7,4.4c4.7,3.7,7.4,9,7.7,14.9c0.3,5.8-1.9,11.5-6,15.6c-4.1,4.1-9.5,6.2-15.2,6C58,56.2,52.8,58.2,49,62  c0,0-0.1,0-0.1,0L38.5,51.6c-0.1-0.1-0.1-0.1-0.1-0.2C38.4,51.4,38.4,51.3,38.5,51.2z M16.7,67.1c2.3-2.3,6.1-2.3,8.5,0  c0.1,0.1,0.2,0.2,0.3,0.3c0.2,0.2,0.4,0.3,0.7,0.3c0.3,0,0.5-0.1,0.7-0.3l12.3-12.3l5.9,5.9L32.8,73.4c-0.2,0.2-0.3,0.5-0.3,0.8  s0.2,0.6,0.4,0.7c0.1,0.1,0.2,0.2,0.3,0.2c2.3,2.3,2.3,6.1,0,8.5c-1.1,1.1-2.6,1.8-4.2,1.8s-3.1-0.6-4.2-1.8c-1.4-1.4-2-3.3-1.7-5.2  c0.1-0.3-0.1-0.6-0.3-0.9s-0.5-0.3-0.9-0.3c-1.9,0.3-3.8-0.3-5.2-1.7C14.4,73.3,14.4,69.5,16.7,67.1z"/><text x="0" y="115" fill="#000000" font-size="5px" font-weight="bold" font-family="'Helvetica Neue', Helvetica, Arial-Unicode, Arial, Sans-serif">Created by Made by Made</text><text x="0" y="120" fill="#000000" font-size="5px" font-weight="bold" font-family="'Helvetica Neue', Helvetica, Arial-Unicode, Arial, Sans-serif">from the Noun Project</text></svg>