<svg xmlns="http://www.w3.org/2000/svg" xmlns:xlink="http://www.w3.org/1999/xlink" version="1.1" x="0px" y="0px" viewBox="0 0 100 125" style="enable-background:new 0 0 100 100;" xml:space="preserve"><path d="M33.6,26.8c-3.3,0-6,2.7-6,6v49.6c0,3.3,2.7,6,6,6h32.9c3.3,0,6-2.7,6-6V32.7c0-3.3-2.7-6-6-6c-1.1,0-2-0.9-2-2v-2.3h2.8  c0.6,0,1-0.4,1-1v-6.8c0-0.6-0.4-1-1-1H32.7c-0.6,0-1,0.4-1,1v6.8c0,0.6,0.4,1,1,1h2.8v2.3C35.5,25.9,34.7,26.8,33.6,26.8z   M70.5,67.5H29.6V43.8h40.8V67.5z M66.5,86.2H33.6c-2.2,0-4-1.8-4-4V69.5h40.8v12.8C70.5,84.5,68.7,86.2,66.5,86.2z M33.7,15.8h32.6  v4.8H33.7V15.8z M62.6,22.5v2.3c0,2.2,1.8,4,4,4c2.2,0,4,1.8,4,4v9H29.6v-9c0-2.2,1.8-4,4-4c2.2,0,4-1.8,4-4v-2.3H62.6z"/><text x="0" y="115" fill="#000000" font-size="5px" font-weight="bold" font-family="'Helvetica Neue', Helvetica, Arial-Unicode, Arial, Sans-serif">Created by Made by Made</text><text x="0" y="120" fill="#000000" font-size="5px" font-weight="bold" font-family="'Helvetica Neue', Helvetica, Arial-Unicode, Arial, Sans-serif">from the Noun Project</text></svg>