<svg xmlns="http://www.w3.org/2000/svg" viewBox="0 0 100 125" x="0px" y="0px"><title>Animal Face line</title><g data-name="Layer 13"><path d="M88.634,41.907A33.6,33.6,0,0,0,80.6,35.832c-3.02-1.506-7.646-1.956-10-2.09a26.642,26.642,0,0,0-1.882-2.132c4.366-5.184,5.067-14.111,5.079-19.162a2.929,2.929,0,0,0-5.378-1.619,30.128,30.128,0,0,0-2.547,5.33c-1.556,3.9-3.026,7.581-7.857,9.723a2.573,2.573,0,0,0-.583.356A48.839,48.839,0,0,0,50,25.766a31.4,31.4,0,0,0-7.086.793,2.5,2.5,0,0,0-.908-.672c-4.843-2.142-6.313-5.826-7.87-9.726a30.085,30.085,0,0,0-2.548-5.333,2.929,2.929,0,0,0-5.378,1.614c.012,5.322.782,14.6,5.532,19.677q-.875.758-1.667,1.592c-1.612.056-7.173.373-10.671,2.118a33.6,33.6,0,0,0-8.038,6.076,1.249,1.249,0,0,0,.108,1.828,33.847,33.847,0,0,0,8.7,5.095,15.262,15.262,0,0,0,3.585.785c0,.134-.01.267-.01.4v8.569c0,3.527,2.145,8.015,3.711,11.292a22.025,22.025,0,0,1,1.486,3.482C28.947,82.811,38.391,90.5,50,90.5s21.053-7.689,21.047-17.054a24.05,24.05,0,0,1,1.221-2.775,46.276,46.276,0,0,0,3.668-9.54,1.219,1.219,0,0,0,.216-1.214,10.7,10.7,0,0,0,.1-1.332V50.016c0-.135-.008-.268-.01-.4a15.281,15.281,0,0,0,3.592-.787,33.828,33.828,0,0,0,8.693-5.092,1.249,1.249,0,0,0,.108-1.828ZM73.75,50.016v8.569a8.6,8.6,0,0,1-.087,1.1c-13.212,8.1-20.222,1.371-20.992.556-7.759-12.783.152-28.49,2-31.811,4.544.379,8.874,1.536,12.124,4.787a24.09,24.09,0,0,1,2.216,2.556c.01.012.018.025.029.037A23.575,23.575,0,0,1,73.75,50.016Zm-5.564-32.93a27.853,27.853,0,0,1,2.322-4.895.391.391,0,0,1,.471-.168.407.407,0,0,1,.311.415c-.009,3.788-.482,12.744-4.459,17.516a18.266,18.266,0,0,0-5.743-2.892C65.251,24.425,66.8,20.555,68.186,17.085ZM28.71,12.433a.405.405,0,0,1,.311-.41.389.389,0,0,1,.471.168,27.828,27.828,0,0,1,2.322,4.9c1.465,3.672,3.119,7.789,7.866,10.423a25.666,25.666,0,0,0-5.95,3.064C29.251,26.006,28.719,16.477,28.71,12.433Zm-7.7,34.041a29.5,29.5,0,0,1-6.832-3.816,29.245,29.245,0,0,1,6.337-4.588,23,23,0,0,1,7.4-1.708,23.219,23.219,0,0,0-4,10.753A12.733,12.733,0,0,1,21.012,46.474Zm49,23.12c-1.038,2.176-1.459,3.086-1.459,3.766C68.553,81.433,60.23,88,50,88S31.447,81.433,31.447,73.359c0-.9-.562-2.116-1.73-4.561-1.463-3.061-3.467-7.253-3.467-10.214V50.016A20.882,20.882,0,0,1,31.323,36.1a1.2,1.2,0,0,0,.11-.13,21.06,21.06,0,0,1,2.842-2.657,1.237,1.237,0,0,0,.31-.244A23.555,23.555,0,0,1,42.5,29.25c.031,0,.061,0,.092,0a1.175,1.175,0,0,0,.135-.062A28.358,28.358,0,0,1,50,28.266q.947,0,1.9.025c-2.713,5.175-9.292,20.34-1.3,33.364a1.375,1.375,0,0,0,.124.168A15.252,15.252,0,0,0,61.715,66.1a23.948,23.948,0,0,0,11.106-3.07A63.531,63.531,0,0,1,70.012,69.594ZM79,46.471a12.748,12.748,0,0,1-2.908.643A25.978,25.978,0,0,0,72.449,36.4a22.226,22.226,0,0,1,7.035,1.674,29.271,29.271,0,0,1,6.335,4.587A29.463,29.463,0,0,1,79,46.471Z"/><circle cx="60.35" cy="54.701" r="2.432"/><circle cx="39.65" cy="54.701" r="2.432"/><path d="M50,71.25c-6.1,0-10.875,3.35-10.875,7.625S43.9,86.5,50,86.5s10.875-3.35,10.875-7.625S56.1,71.25,50,71.25ZM50,84c-4.54,0-8.375-2.347-8.375-5.125S45.46,73.75,50,73.75s8.375,2.347,8.375,5.125S54.54,84,50,84Z"/><path d="M54.322,77.115a1.246,1.246,0,0,0-1.5.937l-.125.542a1.25,1.25,0,0,0,.938,1.5,1.214,1.214,0,0,0,.282.032,1.251,1.251,0,0,0,1.217-.969l.125-.542A1.25,1.25,0,0,0,54.322,77.115Z"/><path d="M47.177,78.052a1.25,1.25,0,0,0-2.437.563l.125.542a1.251,1.251,0,0,0,1.217.969,1.214,1.214,0,0,0,.282-.032,1.25,1.25,0,0,0,.938-1.5Z"/></g><text x="0" y="115" fill="#000000" font-size="5px" font-weight="bold" font-family="'Helvetica Neue', Helvetica, Arial-Unicode, Arial, Sans-serif">Created by Fahrul Oktaviana</text><text x="0" y="120" fill="#000000" font-size="5px" font-weight="bold" font-family="'Helvetica Neue', Helvetica, Arial-Unicode, Arial, Sans-serif">from the Noun Project</text></svg>