<svg xmlns="http://www.w3.org/2000/svg" xmlns:xlink="http://www.w3.org/1999/xlink" version="1.1" x="0px" y="0px" viewBox="0 0 100 125" style="enable-background:new 0 0 100 100;" xml:space="preserve"><path d="M88.3,30.9c-1.9-1.8-2.7-4.4-2.3-7l0.1-0.5c0.6-3.7-0.9-7.4-3.9-9.7c-3.1-2.2-7.1-2.5-10.4-0.8c-2.6,1.3-5.6,1.3-8.2,0  c0,0,0,0,0,0c-3.4-1.8-7.3-1.5-10.4,0.8c-3.1,2.2-4.6,5.9-3.9,9.7l0.1,0.5c0.4,2.6-0.4,5.2-2.3,7l-0.3,0.3  c-2.7,2.6-3.7,6.5-2.5,10.1c1.2,3.6,4.2,6.2,8,6.7l0.5,0.1c2.6,0.4,4.8,2,5.9,4.3l0.2,0.4c1.7,3.4,5.1,5.5,8.9,5.5  c3.8,0,7.2-2.1,8.9-5.5l0.2-0.4c1.1-2.3,3.4-3.9,5.9-4.3l0.5-0.1c3.8-0.5,6.8-3.1,8-6.7c1.2-3.6,0.2-7.5-2.5-10.1L88.3,30.9z   M89.3,40.8c-0.9,2.9-3.3,4.9-6.4,5.4l-0.5,0.1c-3.2,0.5-6,2.5-7.4,5.4l-0.2,0.4c-1.4,2.8-4,4.4-7.1,4.4s-5.7-1.6-7.1-4.4l-0.2-0.4  c-1.4-2.9-4.2-4.9-7.4-5.4l-0.5-0.1c-3-0.4-5.4-2.4-6.4-5.4s-0.2-5.9,2-8.1l0.3-0.3c2.3-2.3,3.4-5.5,2.8-8.8l-0.1-0.5  c-0.5-3,0.7-5.9,3.1-7.7c1.4-1,3-1.5,4.6-1.5c1.2,0,2.5,0.3,3.7,0.9c3.1,1.7,6.9,1.7,10.1,0c2.7-1.4,5.8-1.2,8.3,0.6  c2.5,1.8,3.7,4.7,3.1,7.7l-0.1,0.5c-0.5,3.2,0.5,6.5,2.8,8.7l0.3,0.3C89.5,34.9,90.2,37.9,89.3,40.8z"/><path d="M67.7,23.5c-5.8,0-10.6,4.8-10.6,10.6c0,5.8,4.8,10.6,10.6,10.6c5.8,0,10.6-4.8,10.6-10.6C78.3,28.2,73.5,23.5,67.7,23.5z   M67.7,42.6c-4.7,0-8.6-3.9-8.6-8.6s3.9-8.6,8.6-8.6s8.6,3.9,8.6,8.6S72.4,42.6,67.7,42.6z"/><path d="M47.9,50.5l-0.5-0.1c-2.6-0.3-4.8-1.9-6-4.2l-0.2-0.4c-1.7-3.3-5.1-5.4-8.8-5.4c0,0-0.1,0-0.1,0c-3.8,0.1-7.2,2.2-8.8,5.6  c-1.2,2.6-3.7,4.5-6.6,4.9c-3.7,0.6-6.8,3.2-7.9,6.8C8,61.4,9,65.3,11.7,67.9l0.3,0.3c1.9,1.8,2.8,4.4,2.4,6.9l-0.1,0.5  c-0.6,3.7,1,7.4,4.1,9.6c1.7,1.2,3.7,1.8,5.7,1.8c1.6,0,3.2-0.4,4.7-1.2l0.4-0.2c2.3-1.2,5-1.3,7.3-0.1l0.4,0.2  c3.4,1.7,7.4,1.4,10.4-0.9c3-2.3,4.5-6,3.8-9.7l-0.1-0.5c-0.5-2.6,0.3-5.2,2.2-7l0.3-0.3c2.7-2.7,3.6-6.6,2.4-10.2  C54.8,53.5,51.7,51,47.9,50.5z M52.2,65.9l-0.3,0.3c-2.3,2.3-3.3,5.6-2.7,8.8l0.1,0.5c0.6,3-0.6,5.9-3,7.8c-2.5,1.8-5.6,2.1-8.3,0.7  l-0.4-0.2c-2.9-1.5-6.3-1.4-9.2,0.1l-0.4,0.2c-2.7,1.5-5.8,1.3-8.3-0.5c-2.5-1.8-3.7-4.6-3.2-7.7l0.1-0.5c0.5-3.2-0.6-6.5-3-8.7  l-0.3-0.3c-2.2-2.1-3-5.1-2.1-8.1s3.3-5,6.3-5.5c3.5-0.6,6.5-2.8,8-6c1.3-2.8,3.9-4.5,7-4.5c0,0,0.1,0,0.1,0c3,0,5.6,1.6,7,4.3  l0.2,0.4c1.5,2.9,4.3,4.9,7.5,5.3l0.5,0.1c3,0.4,5.5,2.4,6.4,5.3C55.1,60.7,54.4,63.7,52.2,65.9z"/><path d="M26.5,56.8c-4.7,3.5-5.6,10.2-2.1,14.8c2.1,2.8,5.3,4.2,8.5,4.2c2.2,0,4.4-0.7,6.3-2.1c4.7-3.5,5.6-10.2,2.1-14.8  C37.8,54.3,31.1,53.3,26.5,56.8z M38,72.2c-3.8,2.8-9.2,2.1-12-1.7s-2.1-9.2,1.7-12c1.5-1.2,3.3-1.7,5.1-1.7c2.6,0,5.2,1.2,6.9,3.4  C42.5,63.9,41.8,69.3,38,72.2z"/><text x="0" y="115" fill="#000000" font-size="5px" font-weight="bold" font-family="'Helvetica Neue', Helvetica, Arial-Unicode, Arial, Sans-serif">Created by Made by Made</text><text x="0" y="120" fill="#000000" font-size="5px" font-weight="bold" font-family="'Helvetica Neue', Helvetica, Arial-Unicode, Arial, Sans-serif">from the Noun Project</text></svg>