<svg xmlns="http://www.w3.org/2000/svg" xmlns:xlink="http://www.w3.org/1999/xlink" version="1.1" x="0px" y="0px" viewBox="0 0 100 125" style="enable-background:new 0 0 100 100;" xml:space="preserve"><path d="M40.469,83.16c-1.143,1.804-1.746,3.872-1.746,6.033c0,0.553,0.448,1,1,1h20.609c0.552,0,1-0.447,1-1  c0-2.168-0.605-4.231-1.748-6.032C72.85,79.07,82.518,66.697,82.518,52.107c0-0.553-0.448-1-1-1h-4.511  C74.32,38.441,63.012,29.266,50.025,29.266c-12.982,0-24.296,9.177-26.982,21.842h-4.504c-0.552,0-1,0.447-1,1  C17.538,66.697,27.205,79.068,40.469,83.16z M74.946,51.107H25.103c2.649-11.529,13.025-19.842,24.922-19.842  C61.926,31.266,72.297,39.578,74.946,51.107z M42.515,83.71c2.413,0.574,4.927,0.886,7.513,0.886c2.582,0,5.091-0.312,7.501-0.884  c0.974,1.329,1.58,2.852,1.751,4.479H40.776C40.948,86.571,41.542,85.039,42.515,83.71z M19.554,53.107h60.947  c-0.529,16.351-13.996,29.489-30.474,29.489S20.083,69.458,19.554,53.107z"/><path d="M54.409,18.915c-2.405,0-4.361-1.956-4.361-4.361s1.956-4.361,4.361-4.361c0.552,0,1,0.447,1,1s-0.448,1-1,1  c-1.302,0-2.361,1.06-2.361,2.361s1.059,2.361,2.361,2.361c2.405,0,4.361,1.956,4.361,4.36c0,2.405-1.957,4.361-4.361,4.361  c-0.552,0-1-0.447-1-1s0.448-1,1-1c1.302,0,2.361-1.06,2.361-2.361S55.711,18.915,54.409,18.915z"/><path d="M45.647,10.192c0.552,0,1,0.447,1,1s-0.448,1-1,1c-1.302,0-2.361,1.06-2.361,2.361s1.059,2.361,2.361,2.361  c2.405,0,4.361,1.956,4.361,4.36c0,2.405-1.956,4.361-4.361,4.361c-0.552,0-1-0.447-1-1s0.448-1,1-1c1.302,0,2.361-1.06,2.361-2.361  s-1.059-2.36-2.361-2.36c-2.405,0-4.361-1.956-4.361-4.361S43.242,10.192,45.647,10.192z"/><text x="0" y="115" fill="#000000" font-size="5px" font-weight="bold" font-family="'Helvetica Neue', Helvetica, Arial-Unicode, Arial, Sans-serif">Created by Made by Made</text><text x="0" y="120" fill="#000000" font-size="5px" font-weight="bold" font-family="'Helvetica Neue', Helvetica, Arial-Unicode, Arial, Sans-serif">from the Noun Project</text></svg>